HIERARCHY
ROOT Hips
{
	OFFSET 0.000000 0.000000 0.000000 
	CHANNELS 6 Xposition Yposition Zposition Zrotation Yrotation Xrotation
	JOINT LeftUpLeg
	{
		OFFSET 1.363060 -1.794630 0.839290 
		CHANNELS 3 Zrotation Yrotation Xrotation
		JOINT LeftLeg
		{
			OFFSET 2.448110 -6.726130 0.000000 
			CHANNELS 3 Zrotation Yrotation Xrotation
			JOINT LeftFoot
			{
				OFFSET 2.562200 -7.039590 0.000000 
				CHANNELS 3 Zrotation Yrotation Xrotation
				JOINT LeftToeBase
				{
					OFFSET 0.157640 -0.433110 2.322550 
					CHANNELS 3 Zrotation Yrotation Xrotation
					End Site
					{
						OFFSET 0.000000 0.000000 0.000000 
					}
				}
			}
		}
	}
	JOINT RightUpLeg
	{
		OFFSET -1.305520 -1.794630 0.839290 
		CHANNELS 3 Zrotation Yrotation Xrotation
		JOINT RightLeg
		{
			OFFSET -2.542530 -6.985550 0.000000 
			CHANNELS 3 Zrotation Yrotation Xrotation
			JOINT RightFoot
			{
				OFFSET -2.568260 -7.056230 0.000000 
				CHANNELS 3 Zrotation Yrotation Xrotation
				JOINT RightToeBase
				{
					OFFSET -0.164730 -0.452590 2.363150 
					CHANNELS 3 Zrotation Yrotation Xrotation
					End Site
					{
						OFFSET 0.000000 0.000000 0.000000 
					}
				}
			}
		}
	}
	JOINT Spine
	{
		OFFSET 0.028270 2.035590 -0.193380 
		CHANNELS 3 Zrotation Yrotation Xrotation
		JOINT Spine1
		{
			OFFSET 0.056720 2.048850 -0.042750 
			CHANNELS 3 Zrotation Yrotation Xrotation
			JOINT Neck1
			{
				OFFSET -0.054170 1.746240 0.172020 
				CHANNELS 3 Zrotation Yrotation Xrotation
				JOINT Head
				{
					OFFSET 0.104070 1.761360 -0.123970 
					CHANNELS 3 Zrotation Yrotation Xrotation
					End Site
					{
						OFFSET 0.000000 0.000000 0.000000 
					}
				}
			}
			JOINT LeftArm
			{
				OFFSET 3.362410 1.200890 -0.311210 
				CHANNELS 3 Zrotation Yrotation Xrotation
				JOINT LeftForeArm
				{
					OFFSET 4.983000 -0.000000 -0.000000 
					CHANNELS 3 Zrotation Yrotation Xrotation
					JOINT LeftHand
					{
						OFFSET 3.483560 -0.000000 -0.000000 
						CHANNELS 3 Zrotation Yrotation Xrotation
						JOINT LeftHandIndex1
						{
							OFFSET 0.715260 -0.000000 -0.000000 
							CHANNELS 3 Zrotation Yrotation Xrotation
							End Site
							{
								OFFSET 0.000000 0.000000 0.000000 
							}
						}
					}
				}
			}
			JOINT RightArm
			{
				OFFSET -3.136600 1.374050 -0.404650 
				CHANNELS 3 Zrotation Yrotation Xrotation
				JOINT RightForeArm
				{
					OFFSET -5.241900 -0.000000 -0.000000 
					CHANNELS 3 Zrotation Yrotation Xrotation
					JOINT RightHand
					{
						OFFSET -3.444170 -0.000000 -0.000000 
						CHANNELS 3 Zrotation Yrotation Xrotation
						JOINT RightHandIndex1
						{
							OFFSET -0.622530 -0.000000 -0.000000 
							CHANNELS 3 Zrotation Yrotation Xrotation
							End Site
							{
								OFFSET 0.000000 0.000000 0.000000 
							}
						}
					}
				}
			}
		}
	}
}
MOTION
Frames: 9
Frame Time: 0.041667
-5.313605 17.673889 2.255615 178.442537 -64.314838 179.069933 -0.809342 3.526169 -10.353572 3.309671 14.038474 36.009211 -9.479052 22.761935 -1.009860 1.656000 -8.109300 -23.046700 1.161019 1.673831 -6.803978 -1.442520 -12.354829 31.470717 7.369019 -20.244072 -10.748253 -0.223000 -3.039900 8.389700 -0.043208 1.983395 -1.030529 -2.720535 1.016103 6.728486 1.348771 8.647361 1.941453 -1.067500 4.308500 -1.285400 -71.842023 5.771426 30.311867 48.675211 -49.648582 -29.243679 0.532152 0.665191 13.797015 -7.125000 0.000000 0.000000 70.159330 -3.302770 34.634946 -53.306938 51.731077 -31.451529 1.925024 1.325890 11.894800 7.125000 0.000000 0.000000 
-5.307585 17.671213 2.255838 178.561806 -64.396148 178.937560 -0.738489 3.589372 -10.388300 3.323774 14.034252 36.010006 -9.496786 22.804684 -0.932155 1.885000 -8.622300 -24.620900 1.230640 2.025462 -6.616649 -1.399187 -12.353935 31.502440 6.905172 -19.228881 -11.028154 -0.475400 -4.421700 12.266200 -0.003400 1.889729 -1.037737 -2.629518 0.963332 6.656689 1.025189 8.592556 1.805820 -1.251400 4.274200 -1.332400 -71.886677 5.739736 30.201405 48.669155 -49.640426 -29.244519 0.537024 0.663841 13.694039 -7.125000 0.000000 0.000000 70.073893 -3.183915 34.788129 -53.228361 51.646841 -31.243273 1.934200 1.124514 12.007483 7.125000 0.000000 0.000000 
-5.307808 17.672774 2.256507 178.591143 -64.404986 178.889270 -0.723784 3.554020 -10.338902 3.309260 14.015140 35.942115 -9.510808 22.834557 -0.895217 1.900000 -8.654500 -24.720500 1.258231 1.939576 -6.693023 -1.439718 -12.402396 31.615962 7.221950 -19.941846 -11.049494 -0.299400 -3.518300 9.725200 0.026844 1.804514 -1.029850 -2.540931 0.914684 6.672201 0.837479 8.641630 1.750907 -1.354200 4.295700 -1.342300 -71.937199 5.663338 30.024284 48.599952 -49.604287 -29.197964 0.535952 0.666158 13.607663 -7.125000 0.000000 0.000000 69.926071 -3.205617 35.020321 -53.386179 51.648238 -31.231192 1.909295 0.918824 12.111458 7.125000 0.000000 0.000000 
-5.306136 17.656497 2.256953 178.354075 -64.411022 179.077456 -0.851026 3.789540 -10.293264 3.289064 14.005377 35.886135 -9.447269 22.729964 -0.819225 2.192100 -9.255300 -26.597200 1.159521 1.924838 -6.693227 -1.476153 -12.446144 31.775951 7.129738 -19.745854 -11.102072 -0.311100 -3.585800 9.914100 -0.061256 1.841623 -0.919519 -2.814877 0.941537 7.101139 0.816376 8.640895 1.603945 -1.396600 4.284600 -1.421300 -71.586475 5.384128 30.079199 48.459364 -49.532427 -29.102282 0.532316 0.661109 13.564956 -7.125000 0.000000 0.000000 70.158980 -2.944546 34.978323 -53.438511 51.616128 -31.121247 1.858196 0.674216 12.289155 7.125000 0.000000 0.000000 
-5.302234 17.645682 2.257510 178.217207 -64.427718 179.190877 -0.919513 3.940722 -10.265491 3.269831 13.987134 35.811930 -9.420988 22.691050 -0.752492 2.462600 -9.769500 -28.233500 1.111353 2.004628 -6.696266 -1.507015 -12.497504 31.956793 7.005899 -19.485061 -11.227933 -0.349600 -3.798700 10.511100 -0.112070 1.835295 -0.843721 -2.976764 0.942303 7.395348 0.764505 8.652138 1.516482 -1.444000 4.282900 -1.453300 -71.351238 5.158822 30.055069 48.368722 -49.479620 -29.045697 0.530394 0.657153 13.509338 -7.125000 0.000000 0.000000 70.285114 -2.706511 35.004037 -53.440268 51.579147 -31.008646 1.800220 0.477519 12.397392 7.125000 0.000000 0.000000 
-5.297105 17.634311 2.258291 178.067191 -64.441751 179.321280 -0.992829 4.089103 -10.239912 3.247506 13.966338 35.730107 -9.395301 22.650797 -0.698209 2.748300 -10.275900 -29.875000 1.059074 2.082451 -6.718585 -1.543412 -12.554909 32.158617 6.880256 -19.221968 -11.356264 -0.387900 -3.999400 11.075000 -0.168029 1.841048 -0.767347 -3.147949 0.950192 7.696110 0.770222 8.662166 1.453591 -1.457100 4.281700 -1.474700 -71.109070 4.933320 30.048297 48.286830 -49.430092 -28.994968 0.528144 0.653196 13.472269 -7.125000 0.000000 0.000000 70.428379 -2.471166 34.996783 -53.424431 51.547274 -30.910887 1.743118 0.319786 12.468918 7.125000 0.000000 0.000000 
-5.291196 17.624500 2.259405 177.948295 -64.453853 179.425730 -1.050763 4.209385 -10.225362 3.229815 13.950496 35.669725 -9.373390 22.612733 -0.676543 3.016100 -10.721000 -31.344700 1.017988 2.153177 -6.739845 -1.571057 -12.599140 32.317174 6.755010 -18.956983 -11.456472 -0.434900 -4.231800 11.729700 -0.212857 1.848062 -0.706956 -3.282268 0.958203 7.933160 0.811453 8.666120 1.416478 -1.444700 4.279700 -1.487300 -70.928073 4.751676 30.040251 48.226784 -49.392213 -28.957632 0.526151 0.650376 13.464607 -7.125000 0.000000 0.000000 70.547646 -2.285662 34.976762 -53.392125 51.520153 -30.829962 1.698888 0.211048 12.502788 7.125000 0.000000 0.000000 
-5.285176 17.618034 2.260966 177.888532 -64.460325 179.476717 -1.080867 4.286290 -10.218917 3.217010 13.937549 35.626289 -9.360778 22.587620 -0.679110 3.224200 -11.049500 -32.446900 0.998378 2.178141 -6.778426 -1.594076 -12.633110 32.433737 6.693780 -18.829631 -11.506021 -0.454000 -4.322600 11.986100 -0.238642 1.851268 -0.670120 -3.360143 0.962837 8.075064 0.869368 8.665164 1.405313 -1.416100 4.277700 -1.491200 -70.839979 4.631628 30.016687 48.191656 -49.368444 -28.935260 0.524501 0.649354 13.486781 -7.125000 0.000000 0.000000 70.619174 -2.174572 34.961034 -53.354302 51.499343 -30.769991 1.672351 0.149193 12.503116 7.125000 0.000000 0.000000 
-5.280048 17.615469 2.262862 177.921549 -64.457200 179.446313 -1.070090 4.324083 -10.222045 3.212118 13.927587 35.602206 -9.357764 22.579014 -0.685181 3.347500 -11.237400 -33.084800 1.012934 2.154964 -6.832454 -1.610346 -12.655779 32.499937 6.721069 -18.893652 -11.507115 -0.430500 -4.210600 11.670000 -0.242789 1.849905 -0.656393 -3.383706 0.963736 8.124063 0.919110 8.654943 1.406161 -1.385600 4.272900 -1.494000 -70.846760 4.573462 29.976405 48.178079 -49.357622 -28.925200 0.523250 0.650087 13.524339 -7.125000 0.000000 0.000000 70.639862 -2.137987 34.955159 -53.315281 51.483705 -30.726949 1.660686 0.122215 12.484139 7.125000 0.000000 0.000000 
